<svg xmlns="http://www.w3.org/2000/svg" xmlns:xlink="http://www.w3.org/1999/xlink" viewBox="0 0 100 100"><defs><style>.cls-1{isolation:isolate;}.cls-2{opacity:0.6;}.cls-3{fill:#fff;}.cls-4{fill:#5b1717;}.cls-5{fill:url(#radial-gradient);}.cls-6{fill:url(#radial-gradient-2);}.cls-7{opacity:0.7;fill:url(#linear-gradient);}.cls-8{fill:url(#Brass_Radial);}.cls-9{fill:#ca891b;}.cls-10{fill:url(#Copper_Radial);}.cls-11{fill:#824219;}.cls-12{mix-blend-mode:multiply;opacity:0.4;}.cls-13{fill:url(#Copper_Radial-2);}.cls-14{fill:url(#radial-gradient-3);}.cls-15{fill:#b29c64;}.cls-16{fill:url(#Áåçûìÿííûé_ãðàäèåíò_13);}.cls-17{fill:url(#Áåçûìÿííûé_ãðàäèåíò_13-2);}.cls-18{fill:#ffed92;}</style><radialGradient id="radial-gradient" cx="29.69" cy="53.92" r="39.1" gradientUnits="userSpaceOnUse"><stop offset="0.3" stop-color="#f9a61b"/><stop offset="0.48" stop-color="#e3851f"/><stop offset="0.8" stop-color="#b64126"/><stop offset="1" stop-color="#6d1d10"/></radialGradient><radialGradient id="radial-gradient-2" cx="49.98" cy="66.49" r="32.81" xlink:href="#radial-gradient"/><linearGradient id="linear-gradient" x1="4.84" y1="62.3" x2="95.16" y2="62.3" gradientUnits="userSpaceOnUse"><stop offset="0" stop-color="#f3c67f"/><stop offset="1" stop-color="#c7994a"/></linearGradient><radialGradient id="Brass_Radial" cx="50.96" cy="39.98" r="32.6" gradientUnits="userSpaceOnUse"><stop offset="0.18" stop-color="#f4e8d9"/><stop offset="0.59" stop-color="#edd089"/><stop offset="1" stop-color="#c08329"/></radialGradient><radialGradient id="Copper_Radial" cx="48.76" cy="23.36" r="47.65" gradientUnits="userSpaceOnUse"><stop offset="0" stop-color="#fff2db"/><stop offset="0.31" stop-color="#d7b189"/><stop offset="0.75" stop-color="#92562d"/><stop offset="0.78" stop-color="#8d5027"/><stop offset="1" stop-color="#541513"/></radialGradient><radialGradient id="Copper_Radial-2" cx="48.76" cy="23.36" r="47.65" xlink:href="#Copper_Radial"/><radialGradient id="radial-gradient-3" cx="50.01" cy="55.47" r="22.89" gradientUnits="userSpaceOnUse"><stop offset="0" stop-color="#eed495"/><stop offset="1" stop-color="#c08329"/></radialGradient><linearGradient id="Áåçûìÿííûé_ãðàäèåíò_13" x1="49.98" y1="18.71" x2="49.98" y2="48.25" gradientUnits="userSpaceOnUse"><stop offset="0" stop-color="#ff7c3b"/><stop offset="1" stop-color="#ffe655"/></linearGradient><linearGradient id="Áåçûìÿííûé_ãðàäèåíò_13-2" x1="50.06" y1="12.29" x2="50.06" y2="42.12" xlink:href="#Áåçûìÿííûé_ãðàäèåíò_13"/></defs><g class="cls-1"><g id="Layer_1" data-name="Layer 1"><g class="cls-2"><path d="M93.13,52c-6.1-2.61-17.8-4.49-31.8-5.16.06-8.15-2.46-18-6-22.17a6.76,6.76,0,0,0-5.21-2.7h-.21a7,7,0,0,0-5.34,2.65c-3.86,4.39-5.91,14.86-6,22.22l-1.25.07h-.33L35.32,47l-.4,0-1.6.11-.54,0-1.44.11-2.62.24-1.26.12-3.66.43h-.16l-6.61,1H16.9l-.84.17-.7.14-.84.18h-.06l-.62.15L13,50l-.66.17c-.27.06-.51.13-.76.2l-.6.16-.77.23-.55.17-.75.25-.5.18H8.37l-.65.24-.55.22-.61.27-.51.23-.6.3-.5.27-.55.32-.49.32-.54.39-.45.36c-.18.15-.37.32-.53.48a5.6,5.6,0,0,0-.41.43,6.37,6.37,0,0,0-.49.59,6.54,6.54,0,0,0-.39.58,5.92,5.92,0,0,0-.4.73c-.11.24-.2.45-.28.67v0A5,5,0,0,0,0,60v.26c0,.07,0,.17,0,.3s0,.16,0,.23h0A32.91,32.91,0,0,0,6.87,77.06C17.09,90.3,34.48,93.91,47.26,94.62l2.63.11h.25l2.56-.11c12.79-.71,30.17-4.32,40.39-17.56a33.29,33.29,0,0,0,6.72-15.43v-.06a6.49,6.49,0,0,0,.17-1.24,2.62,2.62,0,0,0,0-.27C100,56.63,97.69,53.9,93.13,52Zm-36-5.39c0-.18,0-.36,0-.54C57.18,46.21,57.17,46.39,57.17,46.57Zm-.31,4.23q.07-.44.12-.9Q56.94,50.37,56.86,50.8ZM57,49.59l.06-.62Zm.08-1c0-.19,0-.37,0-.56C57.13,48.2,57.12,48.38,57.1,48.57Zm.06-1c0-.17,0-.34,0-.51C57.17,47.2,57.16,47.37,57.16,47.54Zm-.25-5.63c0,.17,0,.33.05.5C56.94,42.24,56.93,42.08,56.91,41.91Zm.1,1c0,.17,0,.34,0,.51C57,43.29,57,43.12,57,43Zm.08,1,0,.52Zm.06,1c0,.18,0,.36,0,.54C57.16,45.37,57.15,45.19,57.15,45ZM55.42,34.39,55.3,34Zm1.42,7-.06-.51Zm-.14-1c0-.17-.05-.34-.07-.51C56.65,40,56.68,40.18,56.7,40.35Zm-.16-1-.09-.5Zm-.19-1-.09-.49Zm-.2-1c0-.16-.07-.33-.11-.49C56.08,37,56.11,37.13,56.15,37.29Zm-.22-1-.12-.48Zm-.25-1-.12-.47Zm-.53-1.86c0-.14-.09-.29-.14-.43C55.06,33.19,55.1,33.34,55.15,33.48Zm-.29-.87c0-.14-.09-.28-.14-.42C54.77,32.33,54.81,32.47,54.86,32.61Zm-2.7-5.3c-.06-.07-.12-.15-.18-.21S52.1,27.24,52.16,27.31Zm2.4,4.46-.15-.39ZM54.25,31c-.06-.13-.11-.26-.16-.38C54.14,30.72,54.19,30.85,54.25,31Zm-.33-.75c-.05-.12-.11-.24-.16-.35C53.81,30,53.87,30.11,53.92,30.23Zm-.33-.7c-.06-.11-.12-.22-.17-.33C53.47,29.31,53.53,29.42,53.59,29.53Zm-.35-.64-.17-.31Zm-.35-.59L52.71,28Zm-.36-.53-.18-.24ZM50,26.1h.2l.14,0-.25,0-.27,0Zm1.84.82a1.62,1.62,0,0,0-.19-.18A1.62,1.62,0,0,1,51.79,26.92Zm-.37-.32-.19-.14ZM51,26.35l-.19-.09Zm-.38-.16-.19-.05Zm-1.11-.05-.22.07Zm-.42.13-.23.11Zm-.42.22-.23.16Zm-.41.3-.23.2Zm-.4.37c-.08.08-.15.17-.23.26C47.75,27.33,47.82,27.24,47.9,27.16ZM45.43,31.6c-.07.18-.13.37-.2.55C45.3,32,45.36,31.78,45.43,31.6Zm2.08-4-.22.3Zm-.38.52c-.07.11-.14.23-.22.34C47,28.36,47.06,28.24,47.13,28.13Zm-.37.58-.21.39Zm-.35.65-.21.43Zm-.34.7-.21.47Zm-.33.74c-.07.17-.13.35-.2.52C45.61,31.15,45.67,31,45.74,30.8ZM43,42.78c0-.21,0-.43.07-.64C43.05,42.35,43,42.57,43,42.78Zm2.13-10.34-.19.58Zm-.28.87-.18.62Zm-.27.91c-.06.21-.11.42-.17.63C44.47,34.64,44.52,34.43,44.58,34.22Zm-.25.94c-.06.22-.11.43-.16.65C44.22,35.59,44.27,35.38,44.33,35.16Zm-.24,1-.15.67Zm-.21,1c-.05.22-.09.45-.14.67C43.79,37.55,43.83,37.32,43.88,37.1Zm-.2,1c0,.22-.09.45-.12.67C43.6,38.55,43.63,38.32,43.68,38.1Zm-.18,1c0,.22-.08.45-.11.68C43.42,39.56,43.46,39.33,43.5,39.11Zm-.17,1-.09.65Zm-.14,1c0,.21,0,.42-.07.63C43.14,41.55,43.16,41.34,43.19,41.13Zm-.22,2c0,.21,0,.42,0,.63C42.93,43.56,43,43.35,43,43.14Zm-.08,1c0,.21,0,.42,0,.63C42.86,44.55,42.87,44.34,42.89,44.13Zm-.06,1c0,.21,0,.41,0,.61C42.81,45.5,42.82,45.3,42.83,45.09Zm0,.95c0,.2,0,.39,0,.58C42.79,46.43,42.79,46.24,42.8,46Zm0,.92c0,.18,0,.36,0,.53C42.79,47.32,42.78,47.14,42.78,47ZM43,50.29c0-.25-.06-.51-.08-.77C42.91,49.78,42.94,50,43,50.29Zm-.1-1c0-.2,0-.4,0-.6C42.84,48.91,42.86,49.11,42.87,49.31Zm0-.9,0-.56Z"/></g><path class="cls-3" d="M93.13,43.62C87,41,75.33,39.13,61.33,38.47c.06-8.15-2.46-18-6-22.18a6.77,6.77,0,0,0-5.21-2.69h-.21a7,7,0,0,0-5.34,2.66c-3.86,4.39-5.91,14.85-6,22.22l-1.25.06-.33,0-1.73.11-.4,0-1.6.11-.54,0L31.34,39l-2.62.24-1.26.12-3.66.43h-.16l-6.61,1H16.9l-.84.17-.7.14-.84.18h-.06l-.62.14-.82.2-.66.16-.76.2-.6.17-.77.23-.55.17-.75.25-.5.17H8.37l-.65.25-.55.22-.61.26L6.05,44l-.6.3-.5.26-.55.33c-.18.11-.34.21-.49.32a5.3,5.3,0,0,0-.54.39L2.92,46c-.18.16-.37.32-.53.49a5.44,5.44,0,0,0-.41.42c-.19.21-.34.4-.49.59s-.27.39-.39.58a5.37,5.37,0,0,0-.4.74c-.11.24-.2.45-.28.67v0A4.91,4.91,0,0,0,0,51.69v.25c0,.08,0,.18,0,.31s0,.15,0,.23h0A32.94,32.94,0,0,0,6.87,68.73C17.09,82,34.48,85.58,47.26,86.28c.84,0,1.7.09,2.63.12h.25c.87,0,1.72-.07,2.56-.12,12.79-.7,30.17-4.32,40.39-17.55A33.29,33.29,0,0,0,99.81,53.3v-.07A6.49,6.49,0,0,0,100,52a2.44,2.44,0,0,0,0-.27C100,48.3,97.69,45.57,93.13,43.62Zm-36-5.38c0-.18,0-.36,0-.55C57.18,37.88,57.17,38.06,57.17,38.24Zm-.31,4.23q.07-.45.12-.9Q56.94,42,56.86,42.47ZM57,41.25l.06-.61Zm.08-1c0-.18,0-.36,0-.55C57.13,39.87,57.12,40.05,57.1,40.23Zm.06-1c0-.17,0-.34,0-.51C57.17,38.87,57.16,39,57.16,39.21Zm-.25-5.63c0,.17,0,.33.05.5C56.94,33.91,56.93,33.75,56.91,33.58Zm.1,1c0,.17,0,.34,0,.51C57,35,57,34.79,57,34.62Zm.08,1,0,.52Zm.06,1c0,.18,0,.36,0,.54C57.16,37,57.15,36.86,57.15,36.68ZM55.42,26.06l-.12-.45Zm1.42,7-.06-.51Zm-.14-1c0-.17-.05-.33-.07-.5C56.65,31.68,56.68,31.84,56.7,32Zm-.16-1-.09-.5Zm-.19-1-.09-.49Zm-.2-1c0-.16-.07-.32-.11-.48C56.08,28.63,56.11,28.79,56.15,29Zm-.22-1-.12-.47Zm-.25-1-.12-.46Zm-.53-1.85c0-.15-.09-.29-.14-.43C55.06,24.86,55.1,25,55.15,25.15Zm-.29-.88c0-.13-.09-.27-.14-.41C54.77,24,54.81,24.14,54.86,24.27ZM52.16,19,52,18.76Zm2.4,4.46-.15-.4Zm-.31-.8c-.06-.12-.11-.25-.16-.37C54.14,22.39,54.19,22.52,54.25,22.64Zm-.33-.74-.16-.36Zm-.33-.7c-.06-.11-.12-.22-.17-.33C53.47,21,53.53,21.09,53.59,21.2Zm-.35-.65-.17-.3ZM52.89,20l-.18-.28Zm-.36-.53-.18-.25ZM50,17.77H50l-.27,0Zm1.84.81a1.54,1.54,0,0,0-.19-.17A1.54,1.54,0,0,1,51.79,18.58Zm-.37-.32-.19-.13ZM51,18l-.19-.1Zm-.38-.16-.19-.05Zm-1.11-.05-.22.06Zm-.42.13-.23.11Zm-.42.22c-.08,0-.15.1-.23.15C48.56,18.26,48.63,18.2,48.71,18.16Zm-.41.29-.23.21Zm-.4.38-.23.25Zm-2.47,4.44c-.07.18-.13.36-.2.55C45.3,23.63,45.36,23.45,45.43,23.27Zm2.08-4a3.3,3.3,0,0,0-.22.3A3.3,3.3,0,0,1,47.51,19.28Zm-.38.52-.22.34Zm-.37.58-.21.39Zm-.35.64-.21.43Zm-.34.7-.21.48Zm-.33.75c-.07.17-.13.34-.2.52C45.61,22.81,45.67,22.64,45.74,22.47ZM43,34.45c0-.22,0-.43.07-.64C43.05,34,43,34.23,43,34.45Zm2.13-10.34c-.06.19-.13.38-.19.58C45,24.49,45.07,24.3,45.13,24.11Zm-.28.87-.18.61Zm-.27.91c-.06.21-.11.42-.17.63C44.47,26.31,44.52,26.1,44.58,25.89Zm-.25.94c-.06.21-.11.43-.16.65C44.22,27.26,44.27,27,44.33,26.83Zm-.24,1-.15.67Zm-.21,1c-.05.22-.09.44-.14.67C43.79,29.21,43.83,29,43.88,28.77Zm-.2,1c0,.22-.09.44-.12.67C43.6,30.21,43.63,30,43.68,29.77Zm-.18,1c0,.23-.08.46-.11.69C43.42,31.23,43.46,31,43.5,30.77Zm-.17,1-.09.66Zm-.14,1c0,.21,0,.41-.07.62C43.14,33.21,43.16,33,43.19,32.8Zm-.22,2c0,.22,0,.42,0,.63C42.93,35.22,43,35,43,34.8Zm-.08,1c0,.22,0,.43,0,.64C42.86,36.22,42.87,36,42.89,35.79Zm-.06,1c0,.21,0,.41,0,.61C42.81,37.17,42.82,37,42.83,36.76Zm0,1c0,.19,0,.38,0,.57C42.79,38.09,42.79,37.9,42.8,37.71Zm0,.92c0,.18,0,.35,0,.53C42.79,39,42.78,38.81,42.78,38.63ZM43,42c0-.25-.06-.51-.08-.77C42.91,41.45,42.94,41.71,43,42Zm-.1-1c0-.2,0-.4,0-.61C42.84,40.58,42.86,40.78,42.87,41Zm0-.91,0-.55Z"/><path class="cls-4" d="M91.69,47C83,43.28,61.44,41.11,39.5,42.11l-1.92.09-.32,0-1.7.1-6.51.53-4.85.54-6.61,1-.8.16-.71.14-4.1,1-.68.2-.54.17-.63.21-.5.18-.58.22-.47.18-.53.23-.43.2-.48.24-.39.21L6.32,48,6,48.25l-.39.28-.29.23c-.12.1-.23.21-.33.31a2.29,2.29,0,0,0-.27.27q-.14.15-.27.33c-.07.1-.14.2-.2.3a2.82,2.82,0,0,0-.21.38,3.45,3.45,0,0,0-.14.34l-.05.15a1.24,1.24,0,0,0-.15.65v.25a2.25,2.25,0,0,0,0,.25,1.09,1.09,0,0,0,0,.13c0,.11,0,.27,0,.48l0,0h0a30,30,0,0,0,6,13.87C19.15,78.62,35.44,82,47.46,82.62c.81,0,1.64.09,2.54.11h0c.84,0,1.66-.06,2.47-.11,12-.66,28.32-4,37.69-16.13a29.36,29.36,0,0,0,6-13.84l.06-.23a3.55,3.55,0,0,0,.08-.7C96.33,49.88,94.81,48.33,91.69,47Z"/><path class="cls-5" d="M92.46,53.73a27.07,27.07,0,0,1-5,10.63C78.87,75.45,63.61,78.52,52.31,79.15c-.79,0-1.57.08-2.33.1s-1.54-.06-2.32-.1c-11.3-.63-26.56-3.7-35.13-14.79a27.27,27.27,0,0,1-5-10.63Z"/><path class="cls-6" d="M92.46,53.73a27.07,27.07,0,0,1-5,10.63C78.87,75.45,63.61,78.52,52.31,79.15c-.79,0-1.57.08-2.33.1s-1.54-.06-2.32-.1c-11.3-.63-26.56-3.7-35.13-14.79a27.27,27.27,0,0,1-5-10.63h85m1.72-1.38H5.78L6.15,54a28.42,28.42,0,0,0,5.29,11.18C20.32,76.71,36,79.89,47.58,80.53c.79,0,1.59.08,2.36.1H50c.77,0,1.56-.06,2.36-.1C64,79.89,79.64,76.71,88.53,65.21A28.29,28.29,0,0,0,93.81,54l.37-1.68Z"/><path class="cls-7" d="M50,43.05c-21.79,0-44.31,3.13-45.13,8.38h0l0,.31a.87.87,0,0,0,0,.11.76.76,0,0,0,0,.15,28.15,28.15,0,0,0,5.83,13.77c9.09,11.78,25,15,36.82,15.68.8,0,1.61.08,2.44.1h0c.83,0,1.65-.06,2.45-.1,11.77-.65,27.72-3.9,36.82-15.68A28.53,28.53,0,0,0,95,52.36a1.77,1.77,0,0,0,.12-.64C95.16,46.29,72.2,43.05,50,43.05ZM92.46,53.73a27.07,27.07,0,0,1-5,10.63C78.87,75.45,63.61,78.52,52.31,79.15c-.79,0-1.57.08-2.33.1s-1.54-.06-2.32-.1c-11.3-.63-26.56-3.7-35.13-14.79a27.27,27.27,0,0,1-5-10.63Z"/><ellipse class="cls-8" cx="50.01" cy="51.72" rx="44.85" ry="8.38"/><path class="cls-9" d="M50,60.4c-22.2,0-45.15-3.25-45.15-8.68s23-8.67,45.15-8.67,45.15,3.24,45.15,8.67S72.2,60.4,50,60.4Zm0-16.77a182.36,182.36,0,0,0-31.67,2.45c-8.19,1.54-12.89,3.59-12.89,5.64s4.7,4.11,12.89,5.64A181.38,181.38,0,0,0,50,59.81a181.26,181.26,0,0,0,31.66-2.45c8.2-1.53,12.9-3.59,12.9-5.64s-4.7-4.1-12.9-5.64A182.24,182.24,0,0,0,50,43.63Z"/><path class="cls-10" d="M91,51.72c0,3.63-18.35,6.57-41,6.57S9,55.35,9,51.72s18.34-6.57,41-6.57S91,48.1,91,51.72Z"/><path class="cls-11" d="M50,44.86c-20.29,0-41.28,2.57-41.28,6.86,0,1.63,3,3,7.81,4.09,7.94,1.78,20.84,2.78,33.47,2.78s25.53-1,33.46-2.78c4.82-1.09,7.81-2.46,7.81-4.09C91.28,47.43,70.3,44.86,50,44.86ZM50,58c-13.87,0-25.15-1.06-32.28-2.52C12.35,54.37,9.32,53,9.32,51.72c0-3,16.35-6.27,40.69-6.27S90.7,48.69,90.7,51.72c0,1.31-3,2.65-8.41,3.76C75.15,56.94,63.88,58,50,58Z"/><g class="cls-12"><path class="cls-13" d="M80,47.24a18.58,18.58,0,0,1-7.39,9.44c-.35.22-.71.43-1.07.64,11.7-1.16,19.5-3.23,19.5-5.6C91,50,86.79,48.41,80,47.24Z"/></g><path class="cls-14" d="M82.29,55.48C75.15,56.94,63.88,58,50,58s-25.15-1.06-32.28-2.52C27.78,52.92,48.31,52.94,50,53S72.24,52.92,82.29,55.48Z"/><rect class="cls-15" x="48.79" y="47.56" width="2.38" height="8.86"/><path class="cls-16" d="M50,17.77C45.3,17.56,41.93,34,43,42c.46,3.68,2,6.73,5.06,8a5.86,5.86,0,0,0,6.38-1.73C60.64,42,55.13,17.41,50,17.77Z"/><path class="cls-17" d="M50.11,24.26c-4-.17-6.78,12.5-5.91,18.64.38,2.83,1.69,5.19,4.23,6.14a5.15,5.15,0,0,0,5.34-1.33C59,43,54.37,24,50.11,24.26Z"/><path class="cls-18" d="M50.19,32.12c-3-.11-5.07,7.9-4.41,11.79a4.56,4.56,0,0,0,3.15,3.89,4.3,4.3,0,0,0,4-.85C56.81,44,53.36,31.94,50.19,32.12Z"/></g></g></svg>